<svg xmlns="http://www.w3.org/2000/svg" viewBox="0 0 640 760">
  <defs>
    <radialGradient id="halo" cx="50%" cy="39%" r="48%">
      <stop offset="0" stop-color="#00e5ff" stop-opacity=".42"/>
      <stop offset=".55" stop-color="#9b5cff" stop-opacity=".18"/>
      <stop offset="1" stop-color="#020611" stop-opacity="0"/>
    </radialGradient>
    <linearGradient id="body" x1="0" x2="1" y1="0" y2="1">
      <stop offset="0" stop-color="#111d34"/>
      <stop offset="1" stop-color="#020611"/>
    </linearGradient>
    <filter id="glow"><feGaussianBlur stdDeviation="9"/><feMerge><feMergeNode/><feMergeNode in="SourceGraphic"/></feMerge></filter>
  </defs>
  <rect width="640" height="760" fill="none"/>
  <circle cx="320" cy="285" r="245" fill="url(#halo)"/>
  <circle cx="320" cy="285" r="218" fill="none" stroke="#00e5ff" stroke-width="4" opacity=".66" filter="url(#glow)"/>
  <circle cx="320" cy="285" r="176" fill="none" stroke="#9b5cff" stroke-width="3" opacity=".35"/>
  <g opacity=".42" stroke="#00e5ff" stroke-width="2">
    <path d="M80 188h108M452 142h96M98 496h130M438 526h122"/>
    <path d="M120 188v-42h48M514 142v54h56M164 496v44h74"/>
  </g>
  <g filter="url(#glow)">
    <circle cx="320" cy="232" r="86" fill="#0a1428" stroke="#00e5ff" stroke-width="3"/>
    <path d="M192 662c24-160 84-240 128-240s104 80 128 240H192z" fill="url(#body)" stroke="#00e5ff" stroke-width="3"/>
    <path d="M246 520c38 44 110 44 148 0" fill="none" stroke="#9b5cff" stroke-width="4" opacity=".72"/>
  </g>
  <text x="320" y="712" fill="#aab7d4" font-size="27" font-family="Arial, sans-serif" text-anchor="middle" letter-spacing="4">FOTO EN ACTUALIZACIÓN</text>
</svg>